<?xml version="1.0" encoding="UTF-8"?>
<svg xmlns="http://www.w3.org/2000/svg" viewBox="0 0 1861 2652">
  <defs>
    <style>
      .cls-1 {
        fill: #e4cc98;
      }

      .cls-2 {
        stroke-width: 5.23px;
      }

      .cls-2, .cls-3, .cls-4, .cls-5 {
        stroke: #964f30;
        stroke-miterlimit: 10;
      }

      .cls-2, .cls-4 {
        fill: none;
      }

      .cls-6 {
        fill: #ba9a6e;
      }

      .cls-7 {
        isolation: isolate;
      }

      .cls-3 {
        fill: #161515;
        opacity: .54;
      }

      .cls-3, .cls-8, .cls-9, .cls-5 {
        mix-blend-mode: multiply;
      }

      .cls-8 {
        opacity: .31;
      }

      .cls-9 {
        opacity: .29;
      }

      .cls-4 {
        stroke-width: 10.47px;
      }

      .cls-5 {
        fill: #bf792c;
        opacity: .26;
      }
    </style>
  </defs>
  <g class="cls-7">
    <g id="b830705c-4a1c-4edd-8847-00a21eea419e">
      <rect class="cls-1" x="-38.06" y="-45.97" width="1965.91" height="2729.74"/>
      <g id="front" class="cls-9">
        <g id="pattern">
          <polyline class="cls-2" points="824.65 2584.55 84.7 2584.55 84.7 91.3 824.65 91.3"/>
          <polyline class="cls-2" points="1031.76 91.3 1776.3 91.3 1776.3 2584.55 1031.76 2584.55"/>
          <polyline class="cls-2" points="1833.61 2634.95 1833.61 40.9 1031.76 40.9"/>
          <line class="cls-2" x1="824.65" y1="40.9" x2="27.39" y2="40.9"/>
          <polyline class="cls-4" points="1031.76 40.9 1833.61 40.9 1833.61 2634.95 1031.76 2633.44 1031.76 2584.55 1031.76 2524.07 928.15 2433.05 824.65 2524.07 824.65 2584.55 824.65 2633.44 27.39 2634.95 27.39 40.9 824.65 40.9"/>
          <polyline class="cls-2" points="845.63 2505.65 928.21 2433.02 1010.79 2505.65"/>
          <polyline class="cls-2" points="845.63 2539.17 928.21 2466.54 1010.79 2539.17"/>
          <g>
            <line class="cls-2" x1="824.65" y1="2541.18" x2="209.14" y2="2540.99"/>
            <g>
              <rect class="cls-4" x="36.57" y="2491.76" width="133.98" height="152.33" transform="translate(-2464.37 2671.49) rotate(-90)"/>
              <polyline class="cls-2" points="84.7 2475.07 209.14 2475.07 209.14 2584.52"/>
              <line class="cls-2" x1="27.39" y1="2145.61" x2="134.33" y2="2145.61"/>
              <line class="cls-2" x1="530.84" y1="2634.92" x2="530.84" y2="2539.17"/>
            </g>
          </g>
          <g>
            <line class="cls-2" x1="1031.76" y1="2541.18" x2="1647.27" y2="2540.99"/>
            <g>
              <rect class="cls-4" x="1685.87" y="2491.76" width="133.98" height="152.33" transform="translate(-815.07 4320.79) rotate(-90)"/>
              <polyline class="cls-2" points="1771.72 2475.07 1647.27 2475.07 1647.27 2584.52"/>
              <line class="cls-2" x1="1829.02" y1="2145.61" x2="1722.09" y2="2145.61"/>
              <line class="cls-2" x1="1325.58" y1="2634.92" x2="1325.58" y2="2539.17"/>
            </g>
          </g>
          <g>
            <line class="cls-2" x1="1031.76" y1="134.68" x2="1647.27" y2="134.87"/>
            <g>
              <rect class="cls-4" x="1685.87" y="31.76" width="133.98" height="152.33" transform="translate(1860.78 -1644.93) rotate(90)"/>
              <polyline class="cls-2" points="1771.72 200.79 1647.27 200.79 1647.27 91.34"/>
              <line class="cls-2" x1="1829.02" y1="530.25" x2="1722.09" y2="530.25"/>
              <line class="cls-2" x1="1325.58" y1="40.94" x2="1325.58" y2="136.68"/>
            </g>
          </g>
          <g>
            <line class="cls-2" x1="824.65" y1="134.68" x2="209.14" y2="134.87"/>
            <g>
              <rect class="cls-4" x="36.57" y="31.76" width="133.98" height="152.33" transform="translate(211.49 4.37) rotate(90)"/>
              <polyline class="cls-2" points="84.7 200.79 209.14 200.79 209.14 91.34"/>
              <line class="cls-2" x1="27.39" y1="530.25" x2="134.33" y2="530.25"/>
              <line class="cls-2" x1="530.84" y1="40.94" x2="530.84" y2="136.68"/>
            </g>
          </g>
          <polyline class="cls-2" points="824.65 2633.47 824.65 2524.1 928.21 2433.02 1031.76 2524.1 1031.76 2633.47"/>
          <polyline class="cls-2" points="845.63 136.68 928.21 209.31 1010.79 136.68"/>
          <polyline class="cls-2" points="824.65 40.9 824.65 151.76 928.21 242.83 1031.76 151.76 1031.76 40.9"/>
          <g>
            <g>
              <line class="cls-2" x1="520.4" y1="2109.4" x2="907.29" y2="2449.67"/>
              <line class="cls-2" x1="602.4" y1="2210.81" x2="890.64" y2="2464.31"/>
              <line class="cls-2" x1="583.52" y1="2223.49" x2="873.99" y2="2478.96"/>
              <line class="cls-2" x1="674.34" y1="2332.66" x2="857.33" y2="2493.6"/>
              <line class="cls-2" x1="720.56" y1="2402.61" x2="840.68" y2="2508.25"/>
              <line class="cls-2" x1="751.63" y1="2459.22" x2="824.03" y2="2522.89"/>
            </g>
            <g>
              <line class="cls-2" x1="1336.01" y1="2109.4" x2="949.12" y2="2449.67"/>
              <line class="cls-2" x1="1254.02" y1="2210.81" x2="965.78" y2="2464.31"/>
              <line class="cls-2" x1="1272.9" y1="2223.49" x2="982.43" y2="2478.96"/>
              <line class="cls-2" x1="1182.08" y1="2332.66" x2="999.08" y2="2493.6"/>
              <line class="cls-2" x1="1135.85" y1="2402.61" x2="1015.73" y2="2508.25"/>
              <line class="cls-2" x1="1104.79" y1="2459.22" x2="1032.39" y2="2522.89"/>
            </g>
            <g>
              <line class="cls-2" x1="520.4" y1="566.45" x2="907.29" y2="226.19"/>
              <line class="cls-2" x1="602.4" y1="465.05" x2="890.64" y2="211.54"/>
              <line class="cls-2" x1="583.52" y1="452.36" x2="873.99" y2="196.9"/>
              <line class="cls-2" x1="674.34" y1="343.2" x2="857.33" y2="182.25"/>
              <line class="cls-2" x1="720.56" y1="273.25" x2="840.68" y2="167.61"/>
              <line class="cls-2" x1="751.63" y1="216.64" x2="824.03" y2="152.96"/>
            </g>
            <g>
              <line class="cls-2" x1="1336.01" y1="566.45" x2="949.12" y2="226.19"/>
              <line class="cls-2" x1="1254.02" y1="465.05" x2="965.78" y2="211.54"/>
              <line class="cls-2" x1="1272.9" y1="452.36" x2="982.43" y2="196.9"/>
              <line class="cls-2" x1="1182.08" y1="343.2" x2="999.08" y2="182.25"/>
              <line class="cls-2" x1="1135.85" y1="273.25" x2="1015.73" y2="167.61"/>
              <line class="cls-2" x1="1104.79" y1="216.64" x2="1032.39" y2="152.96"/>
            </g>
          </g>
        </g>
      </g>
      <g class="cls-8">
        <g>
          <path class="cls-6" d="M1223.18,1192.56c-5.17,6.64-6.25,14.96-10.69,21.86-11.81,18.34-21.85,37.75-32.68,56.68-5.29,9.25-10.35,18.77-16.81,27.18-7.21,9.38-15.6,17.82-27.47,21.88-11.41,3.9-21.7,10.24-32.21,16.04-10.09,5.57-20.01,11.43-29.52,17.96-.83,.57-2.45,.91-2.02,2.2,.38,1.14,1.92,.89,2.98,.85,9.94-.42,19.83,.77,29.75,.84,1.24,0,3.09-.64,3.51,1.03,.33,1.35-1.39,1.83-2.4,2.42-3.97,2.33-7.99,4.58-12.23,6.99,2.32,1.37,4.44,.65,6.45,.88,1,.11,2.53-.14,2.78,1.19,.19,1.05-1.16,1.45-1.95,1.94-7.82,4.88-16.19,8.69-24.46,12.69-23.26,11.24-47.84,18.93-72.28,27.01-1.05,.35-2.1,.68-3.13,1.06-5.21,1.9-5.29,1.92-6.03-3.38-.42-2.95-2.04-2.08-3.69-1.41-12.15,4.95-24.08,10.39-35.74,16.41-4.79,2.47-9.64,4.87-14.28,7.6-3.64,2.15-7.14,2.06-10.78,.39-33.39-15.26-67.9-27.56-102.82-38.74-5.06-1.62-5.29-1.49-5.58,3.92-.21,3.86-1.02,4.5-4.5,3.15-19.58-7.63-38.32-16.94-55.99-28.35-.67-.43-1.62-.67-1.72-1.85,3.93-2.1,8.59-.32,13.34-2.16-4.9-3.11-9.18-5.84-13.65-8.68,1.31-1.6,2.85-1.33,4.22-1.43,7.69-.57,15.39-1.09,23.09-1.64,.83-.06,2,.18,2.33-.7,.46-1.24-.9-1.59-1.65-2.02-10.24-5.78-20.5-11.55-30.79-17.23-7.82-4.32-15.68-8.51-24.04-11.82-18.59-7.35-31.31-21.37-41.77-37.86-17.92-28.26-35.24-56.88-52.08-85.8-.4-.69-1.16-1.3-.65-2.65,2.83,1.64,5.61,3.24,8.39,4.84,.17-.17,.33-.34,.5-.51-2.84-4.92-5.69-9.83-9.05-15.65,11.88,1.69,19.9,9.31,29.05,14.36,15.45,8.52,30.62,17.56,46.14,25.96,1.5,.81,3.03,1.54,4.98,2.53-.24-3.51-1.74-6.17-2.87-8.85-4.93-11.7-6.53-24-7.46-36.54-.7-9.44-.97-18.88-.53-28.28,1.05-22.07,3.27-43.98,12.32-64.58,3.9-8.86,9.39-16.58,15.66-23.86,7.44-8.63,14.75-17.36,22.03-26.12,4.88-5.88,10.92-10.55,16.31-15.89,1.53-1.52,3.66,1.22,5.2-.82,.14-.19,.6,1.38,.48,2.16-1.95,12.71-3.45,25.48-4.56,38.29-.65,7.44-1.41,14.87-1.79,22.33-1.43,28.3-1.76,56.59,2.91,84.66,3.35,20.15,9.9,39.43,16.97,58.53,7.31,19.75,16.53,38.51,29.54,55.23,8.99,11.55,19.76,21.43,29.96,31.85,1.53,1.56,2.97,1.19,4.66,.53,22.85-8.87,45.77-17.58,68.54-26.64,6.24-2.48,11.75-2.41,17.98,.23,21.23,8.96,42.67,17.41,64,26.12,2.6,1.06,4.6,.62,6.71-1.18,8.67-7.41,17.22-14.88,23.91-24.29,2.67-3.76,6.89-6.18,9.86-9.83,9.52-11.72,15.25-25.38,20.22-39.38,5.37-15.13,10.09-30.5,15.61-45.57,2.97-8.11,3.75-16.45,4.35-24.85,1.39-19.3,2.74-38.6,2.41-57.97-.25-14.6-2.18-29.05-4.01-43.5-1.4-11.05-2.59-22.14-4.65-33.1-.2-1.08-.55-2.42,.22-3.21,2.01-2.07,.96-4.37,.84-6.6-.09-1.65-1.37-3.75,.36-4.79,1.96-1.17,4.46-1.44,6.71-.29,3.29,1.68,6.2,3.96,8.96,6.4,14.74,13.03,26.91,28.09,36.07,45.57,6.44,12.28,12.68,24.6,16.67,37.96,1.36,4.55,1.68,9.2,1.89,13.78,1.23,26.96,1.82,53.89-6.29,80.13-2.06,6.67-3.95,13.4-6.43,19.94-.41,1.07-1.44,2.39-.37,3.41,1.09,1.04,2.3-.12,3.35-.59,18.83-8.39,36.8-18.46,55.02-28.05,5.64-2.97,11.32-5.87,16.84-9.04,2.36-1.36,5.06,.09,7.56-1.3Z"/>
          <path class="cls-6" d="M692.63,1324.7c2.8,4.2,5.59,8.41,8.39,12.61,.25-.1,.5-.2,.75-.29-1.4-5.82-2.8-11.65-4.21-17.53,1.57-.17,1.68,.9,2.09,1.54,16.71,26.11,35.51,50.57,58.2,71.79,19.32,18.07,40.71,32.75,66.3,41.12,15.56,5.09,31.2,10.29,46.14,17.13,13.56,6.2,25.17,15.59,37.34,24.04,.5,.35,.92,.87,1.47,1.09,7.01,2.91,7.95,8.33,7.89,15.37-.33,40.45-.16,80.91-.17,121.37,0,2.35,.72,5.49-3.68,3.54-1.4-.62-1.43,.85-1.51,1.81-.2,2.31-.54,4.63-.55,6.95-.02,3.21-1.28,3.41-3.84,2.12-12.6-6.34-25.12-12.8-36.86-20.66-6.12-4.09-11.92-8.55-17.52-13.36-9.69-8.33-12.97-19.62-15.47-31.34-3.05-14.3-3.52-28.91-5.21-43.38-.55-4.68-1.78-9.14-4.59-13.03-.14-.2-.36-.41-.37-.63-.43-8.43-7.66-10.35-13.31-13.52-7.15-4.01-14.88-6.93-21.96-11.13-8.9-5.28-16.66-12.05-24.54-18.68-1.9-1.6-3.38-4.95-6.99-2.89-.3,.17-1.25-.59-1.79-1.05-15.58-13.55-29-28.76-38.08-47.57-5.97-12.37-12.24-24.58-17.12-37.44-5.06-13.34-7.91-27.3-11.32-41.1-.5-2.03-.07-4.3-.07-6.45,.2-.14,.4-.27,.6-.41Z"/>
          <path class="cls-6" d="M1170.03,1320.02c2.24,9.72-1.22,18.71-3.35,27.87-6.38,27.4-18.57,52.35-32.63,76.44-6.34,10.87-15.17,19.79-24.39,28.27-6.03,5.56-12.15,11.02-18.23,16.52-1.59,1.43-2.93,3.44-5.61,1.57-1.01-.7-2.01,.53-2.84,1.22-8.37,6.99-18.04,11.74-27.85,16.27-2.22,1.03-4.39,2.18-6.65,3.13-12.63,5.31-17.48,15.42-18.37,28.46-.99,14.52-1.88,29.09-5.56,43.29-1.28,4.95-2.99,9.76-4.14,14.78-1.55,6.72-6.32,11.82-11.47,16.29-11.17,9.69-23.68,17.39-36.61,24.46-5.37,2.94-10.84,5.72-16.3,8.5-4.25,2.16-4.52,1.95-4.74-2.95-.01-.24-.04-.49-.04-.73,.04-46.21,.08-92.41,.11-138.62,0-1.75,.13-3.29,1.85-4.47,12.52-8.6,24.68-17.73,37.71-25.55,7.28-4.37,15.09-7.44,23.24-9.95,9.35-2.88,18.27-7.13,27.61-10.05,20.06-6.27,38.03-16.24,54.33-29.35,15.51-12.48,29.26-26.75,41.97-42.04,10.82-13.02,20.7-26.73,29.83-40.98,.56-.87,.87-2.06,2.13-2.36Z"/>
        </g>
      </g>
      <rect class="cls-3" x="-38.06" y="-45.97" width="1965.91" height="2729.74"/>
      <rect class="cls-5" x="-52.46" y="-26.94" width="1965.91" height="2729.74"/>
    </g>
  </g>
</svg>